88      a8P          db         88888888ba   88  888b      88         db         
88    ,88'          d88b        88      "8b  ""  8888b     88        d88b        
88  ,88"           d8'`8b       88      ,8P      88 `8b    88       d8'`8b       
88,d88'           d8'  `8b      88aaaaaa8P'  88  88  `8b   88      d8'  `8b      
8888"88,         d8YaaaaY8b     88""""88'    88  88   `8b  88     d8YaaaaY8b     
88P   Y8b       d8""""""""8b    88    `8b    88  88    `8b 88    d8""""""""8b    
88     "88,    d8'        `8b   88     `8b   88  88     `8888   d8'        `8b   
88       Y8b  d8'          `8b  88      `8b  88  88      `888  d8'          `8b  
-------------------------------------------------------------------------------
                    -------------------------------------
          [ Made.in.USA.1966.CRITERION.DVDRip.x264.AC3-KARiNA.mkv ]            
                    -------------------------------------

[Synopsis]==================================                                                                

          Made in USA | France | 1966 | Directed by Jean-Luc Godard
                                  
With its giddily complex noir plot and color-drenched widescreen images, Made in U.S.A was a final burst of exuberance from Jean-Luc Godard’s early sixties barrage of delirious movie-movies. Yet this chaotic crime thriller and acidly funny critique of consumerism—starring Anna Karina as the most brightly dressed private investigator in film history, searching for a former lover who might have been assassinated—also points toward the more political cinema that would come to define Godard. Featuring characters with names such as Richard Nixon, Robert McNamara, David Goodis, and Doris Mizoguchi, and appearances by a slapstick Jean-Pierre Léaud and a sweetly singing Marianne Faithfull, this piece of pop art is like a Looney Tunes rendition of The Big Sleep gone New Wave.

[ IMdB: http://www.imdb.com/title/tt0060647/ | Rating: 6.4 / 10 (636 votes) ]
                                     
[General]===================================                                                                 

Complete name                    : Made.in.USA.1966.CRITERION.DVDRip.x264.AC3-KARiNA.mkv
Format                           : Matroska
File size                        : 1.72 GiB
Duration                         : 1h 25mn
Overall bit rate                 : 2 888 Kbps
Source                           : Criterion NTSC DVD9

[Video]=====================================
                                 
Format                           : AVC
Codec ID                         : V_MPEG4/ISO/AVC
Bit rate                         : 2 445 Kbps
Nominal bit rate                 : 2 500 Kbps
Width                            : 720 pixels
Height                           : 480 pixels
Display aspect ratio             : 16/9
Frame rate                       : 23.976 fps
Standard                         : NTSC
Resolution                       : 24 bits
Colorimetry                      : 4:2:0
Scan type                        : Progressive
Bits/(Pixel*Frame)               : 0.295
Stream size                      : 1.45 GiB (85%)
Title                            : Track 1
Writing library                  : x264 core 65

[Audio]=====================================                              

Format                           : AC-3
Codec ID                         : A_AC3
Bit rate mode                    : Constant
Bit rate                         : 384 Kbps
Channel(s)                       : 1 channel
Channel positions                : C
Sampling rate                    : 48.0 KHz
Stream size                      : 234 MiB (13%)
Title                            : Track 1
Language                         : French

[Subtitles]=================================

Format                           : UTF-8
Codec ID                         : S_TEXT/UTF8
Title                            : Track 1
Language                         : English

[Chapters]==================================

00:00:00.000                     : :Chapter 1
00:10:30.262                     : :Chapter 2
00:16:17.976                     : :Chapter 3
00:19:08.813                     : :Chapter 4
00:26:32.590                     : :Chapter 5
00:30:13.777                     : :Chapter 6
00:34:42.746                     : :Chapter 7
00:41:39.162                     : :Chapter 8
00:44:17.320                     : :Chapter 9
00:51:56.078                     : :Chapter 10
00:58:01.477                     : :Chapter 11
01:03:24.132                     : :Chapter 12
01:09:34.169                     : :Chapter 13
01:13:36.077                     : :Chapter 14
01:20:45.840                     : :Chapter 15
01:25:04.398                     : :Chapter 16

[KARiNA]===================================